<svg id="Layer_1" data-name="Layer 1" xmlns="http://www.w3.org/2000/svg" viewBox="0 0 487.7 225.35"><defs><style>.cls-1{fill:#ed225d;}</style></defs><title>logo_p5</title><path class="cls-1" d="M27.34,184.1V200h.71a41.78,41.78,0,0,1,5.58-6.77,37,37,0,0,1,8.44-6.18,54.48,54.48,0,0,1,11.3-4.52,51.79,51.79,0,0,1,14.14-1.78,53.22,53.22,0,0,1,39.94,17.35,57.61,57.61,0,0,1,11.41,19,67.47,67.47,0,0,1,4,23.53A70.13,70.13,0,0,1,119,264.33a58.08,58.08,0,0,1-11.17,19.25,53.49,53.49,0,0,1-17.59,13.07,54.25,54.25,0,0,1-23.41,4.87,49.55,49.55,0,0,1-22.23-5A37.78,37.78,0,0,1,29,283h-.47v72.27H0V184.1ZM93.9,240.67a44.65,44.65,0,0,0-2-13.19,36.87,36.87,0,0,0-6.07-11.77,30.49,30.49,0,0,0-10.22-8.44,31,31,0,0,0-14.5-3.21,29,29,0,0,0-14,3.33,36.06,36.06,0,0,0-17.24,20.45,41.13,41.13,0,0,0-2.26,13.31,40,40,0,0,0,2.26,13.19,36.72,36.72,0,0,0,6.66,11.77,34.24,34.24,0,0,0,10.58,8.44,29.92,29.92,0,0,0,14,3.2,30.11,30.11,0,0,0,14.5-3.32,31.66,31.66,0,0,0,10.22-8.56A36.65,36.65,0,0,0,91.88,254a46.18,46.18,0,0,0,2-13.31Zm278-62V305.09a108.13,108.13,0,0,1-1.67,19.37,40.79,40.79,0,0,1-6.3,15.93,33,33,0,0,1-12.6,10.82q-8,4-20.8,4a53.15,53.15,0,0,1-7.13-.48c-2.38-.32-4.28-.63-5.71-.95l2.38-24.25a30.55,30.55,0,0,0,4,.72,37.1,37.1,0,0,0,3.81.23,15.24,15.24,0,0,0,8.08-1.9,12.78,12.78,0,0,0,4.76-5.23,22.86,22.86,0,0,0,2.13-7.72,86.79,86.79,0,0,0,.48-9.39V178.65Zm97.22,35.87a33,33,0,0,0-10.46-8.67,29.42,29.42,0,0,0-14.5-3.69,27.65,27.65,0,0,0-12.6,2.86c-3.81,1.89-5.7,5.07-5.7,9.5s2.09,7.58,6.29,9.39a114.47,114.47,0,0,0,18.43,5.59,104.92,104.92,0,0,1,12.95,3.8,47.71,47.71,0,0,1,11.89,6.3,31.07,31.07,0,0,1,8.68,9.75,28.17,28.17,0,0,1,3.32,14.14q0,10.47-3.92,17.71A33.22,33.22,0,0,1,473.09,293a44.16,44.16,0,0,1-15.21,6.54,79.17,79.17,0,0,1-17.95,2A71.2,71.2,0,0,1,414,296.65a54.64,54.64,0,0,1-20.92-13.9l18.78-17.59a37.38,37.38,0,0,0,12.36,10.22,35.32,35.32,0,0,0,16.88,4,28.71,28.71,0,0,0,6.3-.71,21.19,21.19,0,0,0,5.94-2.26,12.36,12.36,0,0,0,4.4-4.16,11.79,11.79,0,0,0,1.66-6.42,10.54,10.54,0,0,0-6.53-10.22q-6.56-3.09-19.62-6.18a93.52,93.52,0,0,1-12.48-3.69A40.52,40.52,0,0,1,410,239.84a27.43,27.43,0,0,1-7.6-9.15,29.09,29.09,0,0,1-2.86-13.55,32.56,32.56,0,0,1,3.93-16.4,33.71,33.71,0,0,1,10.34-11.3,46.22,46.22,0,0,1,14.5-6.53,64.87,64.87,0,0,1,16.64-2.14A70.12,70.12,0,0,1,469,185a40.82,40.82,0,0,1,18.66,13.08l-18.53,16.4ZM300.72,274.06l17-5.12L321,279.2,304.12,285l10.51,14.89-8.86,6.43-11-14.63L284,305.9l-8.6-6.55L285.85,285l-17.05-6.15,3.34-10.28,17.12,5.52V256.35h11.46v17.71ZM242,220.35a46.76,46.76,0,0,0-12.24-16.64,54.18,54.18,0,0,0-18.42-10.34,71.31,71.31,0,0,0-22.94-3.57q-4.52,0-10.1.47a50.61,50.61,0,0,0-9.63,1.67l1.67-36.37h68.7V129.9h-95.8l-2.85,92a70.89,70.89,0,0,1,8.67-3.57q4.93-1.68,10-3a91.09,91.09,0,0,1,10.46-2,77.72,77.72,0,0,1,10.11-.71,59.79,59.79,0,0,1,13.55,1.55,32.62,32.62,0,0,1,12,5.46A29.29,29.29,0,0,1,213.87,230q3.31,6.42,3.32,16.17a35.69,35.69,0,0,1-2.49,13.67,28.81,28.81,0,0,1-6.77,10.09,29.17,29.17,0,0,1-10,6.18,33.91,33.91,0,0,1-12.12,2.15,32.59,32.59,0,0,1-19.73-6.07,33.12,33.12,0,0,1-11.89-16l-.32.12-20.64,19.34a55.34,55.34,0,0,0,16.21,17q14.49,9.86,35.65,9.86a69.4,69.4,0,0,0,23.77-4,57.39,57.39,0,0,0,19.5-11.65,54.92,54.92,0,0,0,13.19-18.66,61.48,61.48,0,0,0,4.87-25.07A55.12,55.12,0,0,0,242,220.35Z" transform="translate(0 -129.9)"/></svg>