<svg xmlns="http://www.w3.org/2000/svg" viewBox="0 0 354.12 261.39"><title>Asset 8</title><g id="Layer_2" data-name="Layer 2"><g id="Layer_1-2" data-name="Layer 1"><path d="M6.24,100.28a.36.36,0,0,1-.51-.25,1.65,1.65,0,0,1-.06-.76,1,1,0,0,1,.38-.64.73.73,0,0,1,.83,0A10.31,10.31,0,0,1,4.78,95a21.35,21.35,0,0,0-1.71-4.06,2,2,0,0,0,.5-1.08c.09-.47.2-.91.32-1.33a2.34,2.34,0,0,1,.51-1c.21-.21.49-.14.83.19a4.82,4.82,0,0,1,0-2.28,12.27,12.27,0,0,1,.57-1.65,6.78,6.78,0,0,0,.44-1.53,3,3,0,0,0-.38-1.77A17.72,17.72,0,0,0,9,73.3a45.43,45.43,0,0,0,.89-7,9.74,9.74,0,0,0,2-3.05,18.8,18.8,0,0,0,1.21-3.93,22.08,22.08,0,0,0,.38-4A7.78,7.78,0,0,0,13,52.17a.66.66,0,0,1,.57-.57,3.17,3.17,0,0,1,1.08.06,95.79,95.79,0,0,0,1.21-11.3,105.76,105.76,0,0,1,1.27-12,36,36,0,0,1,3.11-10.15,10.29,10.29,0,0,1,6.85-5.65,22.36,22.36,0,0,0,2.35,5.58,56,56,0,0,0,3.17,4.7c1.15,1.52,2.31,3.05,3.49,4.57a37.4,37.4,0,0,1,3.31,5.08q-.14,2.92-.58,6.73T37.66,47c-.46,2.63-.93,5.17-1.39,7.62s-.92,4.53-1.34,6.22a1.06,1.06,0,0,0,.89.82c.51.13.59.62.25,1.46q3.69-.88,7.69-1.71l7.87-1.65q3.87-.82,7.61-2A45,45,0,0,0,66.29,55q.76-6.09,1.9-12.06a35.88,35.88,0,0,0,.26-12.06,5.41,5.41,0,0,0,1.27-1.53,2.31,2.31,0,0,1,1.52-1.14A20.71,20.71,0,0,1,70.61,22a20.94,20.94,0,0,1,1.08-6,13.63,13.63,0,0,1,2.85-4.88,8.82,8.82,0,0,1,4.7-2.73,34.89,34.89,0,0,1,2.92,5.2l2.54,5.65a54.46,54.46,0,0,0,2.73,5.4,14.62,14.62,0,0,0,3.74,4.31c.26,3,.47,6,.64,9.08s.29,6.29.38,9.59c-.76,3.8-1.63,7.51-2.6,11.1a71.86,71.86,0,0,0-2.1,11.49,9.3,9.3,0,0,0-1.65,2.73C85.42,74,85,75,84.63,76.1a28.22,28.22,0,0,1-1.33,3.11,8.5,8.5,0,0,1-1.9,2.54,7.18,7.18,0,0,1,.19,3.36,5.76,5.76,0,0,0,.82,3.75,13.45,13.45,0,0,1-1,6.53,13.17,13.17,0,0,1-3.3,4.45,16.44,16.44,0,0,1-4.82,2.92c-1.83.72-3.62,1.37-5.4,2a25.33,25.33,0,0,1-2.35-1.59,7.18,7.18,0,0,0-2.6-1.21l.63-1.14a32.59,32.59,0,0,1-4.38-5.4,11.06,11.06,0,0,1-1.71-6.53c0-.09.08-.66.25-1.72s.36-2.18.57-3.36.43-2.31.64-3.37.32-1.62.32-1.71a34.75,34.75,0,0,0-7.37,1.65q-3.81,1.28-7.42,2.86c-2.42,1.06-4.66,2.15-6.73,3.3s-3.75,2.09-5,2.85a10.33,10.33,0,0,1-.63,2.16c-.43,1.19-.93,2.44-1.52,3.75a21.69,21.69,0,0,1-2,3.49c-.72,1-1.46,1.48-2.22,1.39a3.49,3.49,0,0,0,.5,1q.26.31,0,1.2A17.48,17.48,0,0,0,23.06,104a24.53,24.53,0,0,1-3.49,1.72,9.81,9.81,0,0,1-3.87.63,12.13,12.13,0,0,1-5-1.58,2.08,2.08,0,0,0-.76-1.59,10.89,10.89,0,0,0-1.58-1.21L6.88,101C6.45,100.79,6.24,100.54,6.24,100.28Z"/><path d="M96.89,106.12A8.87,8.87,0,0,1,94,103.2a19.53,19.53,0,0,1-1.78-3.81,34.32,34.32,0,0,1-1.14-4.25c-.3-1.48-.61-2.9-1-4.25a3.77,3.77,0,0,1,.76-2.61,22.6,22.6,0,0,1,1.65-1.58A50.42,50.42,0,0,0,98,86.19l4.7-.76c1.52-.26,3-.49,4.57-.7a36.23,36.23,0,0,1,5-.32q1.91-3.93,3.55-7.55T119,69.94a34.31,34.31,0,0,1,2-5.9q1.22-2.73,2.35-5.21t2-4.95a21.86,21.86,0,0,0,1.15-5.27q1.52-4.44,2.72-8.19a48.65,48.65,0,0,0,1.85-9q-4.83.77-7.75,1.46a21.07,21.07,0,0,0-4.19,1.34,8.64,8.64,0,0,1-4-1,7.77,7.77,0,0,1-2.35-2.16,13.37,13.37,0,0,1-1.52-2.92c-.42-1.1-.93-2.24-1.52-3.43a6.81,6.81,0,0,0,.25-3.36,4.65,4.65,0,0,0-1.52-3.24A2.36,2.36,0,0,0,110,16.43a3,3,0,0,0,.13-2.22,22.83,22.83,0,0,1,4.57-.83l4.76-.38c1.56-.13,3.07-.29,4.51-.51a8.87,8.87,0,0,0,3.68-1.33l13.77-.51q7.17-.26,13.27-.63a16.58,16.58,0,0,0,5.27.76,47.7,47.7,0,0,1,6,.38,15.26,15.26,0,0,1,5.34,1.65,6.85,6.85,0,0,1,3.23,4.44,5.8,5.8,0,0,1,2.86,1,3.33,3.33,0,0,1,1.21,1.84,9.18,9.18,0,0,1,.19,2.41c-.05.89-.07,1.76-.07,2.61a16.62,16.62,0,0,1-5.14,2.47,47.93,47.93,0,0,1-6.79,1.52,71.3,71.3,0,0,1-7.68.77c-2.67.12-5.27.23-7.81.31A81.67,81.67,0,0,1,149,40q-1.59,5.66-3.24,11.05t-2.85,9.65a19.4,19.4,0,0,0-1.08,5.52q-1.28,2.92-2.1,4.95c-.55,1.35-1.06,2.62-1.52,3.81s-.93,2.35-1.4,3.49-1,2.43-1.71,3.87h8.63a2.59,2.59,0,0,0,1.14,1.91,12.37,12.37,0,0,0,1.91.88,8.9,8.9,0,0,1,1.84,1,2.07,2.07,0,0,1,.82,1.84c1.61.42,2.63,1.06,3.05,1.9a4.06,4.06,0,0,1,.32,2.73,9.39,9.39,0,0,1-1.27,3c-.64,1-1.25,1.91-1.84,2.67a2.45,2.45,0,0,0-2.16.57,16.55,16.55,0,0,0-1.91,1.84,29.72,29.72,0,0,0-7.23-.12q-3.56.38-6.6.63c-.43.09-.6.32-.51.7a.71.71,0,0,1-.25.82,21.87,21.87,0,0,0-8.07-1,53.75,53.75,0,0,0-8.37,1.2q-4.26,1-8.7,2A43.49,43.49,0,0,1,96.89,106.12Z"/><path d="M162.9,85.68a11.89,11.89,0,0,0,2.6,1.46c1.23.55,2.52,1.1,3.88,1.65s2.62,1,3.8,1.46a16,16,0,0,0,2.54.76,12.2,12.2,0,0,1,1.59,4.51c.13,1.31.32,2.69.57,4.13a3.53,3.53,0,0,0-.82,2.09,17.83,17.83,0,0,0-.19,2.1c-.09.67-.26,1.08-.51,1.2a1.67,1.67,0,0,0-.64,1.08.92.92,0,0,0,.13.76.93.93,0,0,1,.13.77q-.14.63-.57.69c-.3,0-.53.28-.7.7a14.34,14.34,0,0,1-.7,1.72,2.67,2.67,0,0,1-.26.38l-.25.25a8.28,8.28,0,0,0-.82,1.46,27.43,27.43,0,0,1-2.16,3.75,10,10,0,0,0-1.65,3.61q-1.78,1.53-4.38,3.88a16.63,16.63,0,0,1-4.89,3.23L156,125.67a42.21,42.21,0,0,1-4.7-2.54,11.3,11.3,0,0,1-3.36-3,2.16,2.16,0,0,1,.25-3,24.35,24.35,0,0,0,4-5.78,50.17,50.17,0,0,0,3-7.23q1.26-3.87,2.22-8c.63-2.75,1.25-5.4,1.84-7.94a.92.92,0,0,0,1,.32,3.54,3.54,0,0,0,1-.63,4.75,4.75,0,0,0,.89-1.08A5.63,5.63,0,0,1,162.9,85.68Z"/><path d="M249.68,2.9q2.92,2.9,2.93,8.6V26.75h-4.8V12.05q0-3.86-1.78-5.8A6.5,6.5,0,0,0,241,4.3a7.59,7.59,0,0,0-5.8,2.28C233.73,8.09,233,10.27,233,13.1V26.75h-4.8V12.05q0-3.86-1.78-5.8a6.5,6.5,0,0,0-5.07-1.95,7.59,7.59,0,0,0-5.8,2.28c-1.43,1.51-2.15,3.69-2.15,6.52V26.75h-4.8V.25h4.6v4A9.21,9.21,0,0,1,217,1.08,12.69,12.69,0,0,1,222.36,0a11.76,11.76,0,0,1,5.5,1.25,8.69,8.69,0,0,1,3.7,3.65,10.21,10.21,0,0,1,4.17-3.6,13.61,13.61,0,0,1,6-1.3A10.77,10.77,0,0,1,249.68,2.9Z"/><path d="M284.41.25,271.56,29.4a13.09,13.09,0,0,1-4,5.7,9.05,9.05,0,0,1-5.47,1.65,11.79,11.79,0,0,1-3.78-.62,7.83,7.83,0,0,1-3-1.83l2.05-3.6a6.69,6.69,0,0,0,4.75,1.95,4.59,4.59,0,0,0,2.92-.92,7.84,7.84,0,0,0,2.13-3.18L268,26.7,256.31.25h5l9.25,21.2L279.71.25Z"/><path d="M230.78,44.7q3,2.92,3,8.57V68.52H229V53.82c0-2.56-.62-4.5-1.85-5.8a7,7,0,0,0-5.3-2,8.25,8.25,0,0,0-6.15,2.28c-1.5,1.51-2.25,3.69-2.25,6.52V68.52h-4.8V42h4.6v4a9.37,9.37,0,0,1,3.92-3.15,13.79,13.79,0,0,1,5.63-1.1A10.93,10.93,0,0,1,230.78,44.7Z"/><path d="M260.73,44.47c1.95,1.8,2.93,4.49,2.93,8.05v16h-4.55V65a7.53,7.53,0,0,1-3.43,2.83,13,13,0,0,1-5.27,1,11,11,0,0,1-7.13-2.15,7.39,7.39,0,0,1-.12-11.27q2.55-2.13,8.1-2.13h7.6v-1a6.13,6.13,0,0,0-1.8-4.75,7.6,7.6,0,0,0-5.3-1.65,13.94,13.94,0,0,0-4.6.78,11.81,11.81,0,0,0-3.8,2.07l-2-3.6a14.38,14.38,0,0,1,4.9-2.52,20.26,20.26,0,0,1,6.05-.88Q257.8,41.77,260.73,44.47ZM256,63.9a7.05,7.05,0,0,0,2.9-3.48v-3.7h-7.4q-6.11,0-6.1,4.1A3.7,3.7,0,0,0,246.91,64a7.06,7.06,0,0,0,4.3,1.15A9,9,0,0,0,256,63.9Z"/><path d="M313.63,44.67c1.95,1.94,2.93,4.8,2.93,8.6V68.52h-4.8V53.82c0-2.56-.59-4.5-1.78-5.8a6.5,6.5,0,0,0-5.07-2,7.58,7.58,0,0,0-5.8,2.28C297.67,49.86,297,52,297,54.87V68.52h-4.8V53.82c0-2.56-.59-4.5-1.78-5.8a6.5,6.5,0,0,0-5.07-2,7.59,7.59,0,0,0-5.8,2.28c-1.43,1.51-2.15,3.69-2.15,6.52V68.52h-4.8V42h4.6V46a9.29,9.29,0,0,1,3.8-3.12,12.69,12.69,0,0,1,5.35-1.08,11.76,11.76,0,0,1,5.5,1.25,8.74,8.74,0,0,1,3.7,3.65,10.21,10.21,0,0,1,4.17-3.6,13.72,13.72,0,0,1,6-1.3A10.77,10.77,0,0,1,313.63,44.67Z"/><path d="M349.41,56.87h-21.5A8.32,8.32,0,0,0,331,62.5a10.08,10.08,0,0,0,6.53,2.12,9.83,9.83,0,0,0,7.65-3.2l2.65,3.1a11.54,11.54,0,0,1-4.48,3.2,15.41,15.41,0,0,1-6,1.1,15.63,15.63,0,0,1-7.45-1.72,12.33,12.33,0,0,1-5-4.83,13.85,13.85,0,0,1-1.77-7,14.07,14.07,0,0,1,1.72-7,12.43,12.43,0,0,1,4.75-4.82,13.54,13.54,0,0,1,6.83-1.73,13.24,13.24,0,0,1,6.77,1.73,12.06,12.06,0,0,1,4.65,4.82,14.69,14.69,0,0,1,1.68,7.1C349.51,55.79,349.47,56.27,349.41,56.87Zm-18.78-8.95a8.45,8.45,0,0,0-2.72,5.5h17A8.52,8.52,0,0,0,342.18,48a8.22,8.22,0,0,0-5.77-2.13A8.31,8.31,0,0,0,330.63,47.92Z"/><path d="M208.68,84.12a3,3,0,0,1-.92-2.2,3.06,3.06,0,0,1,.92-2.22,3.17,3.17,0,0,1,2.33-.93,3.25,3.25,0,0,1,2.32.88,2.86,2.86,0,0,1,.93,2.17A3.16,3.16,0,0,1,211,85,3.22,3.22,0,0,1,208.68,84.12Zm-.07,6h4.8v26.5h-4.8Z"/><path d="M223.91,116.05a13.63,13.63,0,0,1-4.7-2.23l2-3.8a14.19,14.19,0,0,0,4.25,2,17.5,17.5,0,0,0,5,.75q6.3,0,6.3-3.6a2.33,2.33,0,0,0-.85-1.9,5.56,5.56,0,0,0-2.13-1c-.85-.22-2.05-.46-3.62-.73a34.45,34.45,0,0,1-5.23-1.15,7.91,7.91,0,0,1-3.47-2.2,6.1,6.1,0,0,1-1.45-4.35,6.79,6.79,0,0,1,3-5.77,13.43,13.43,0,0,1,8.05-2.18,22.35,22.35,0,0,1,5.3.65,14.55,14.55,0,0,1,4.35,1.75l-2,3.8a13.8,13.8,0,0,0-7.65-2.1,8.9,8.9,0,0,0-4.65,1,3,3,0,0,0-1.6,2.65,2.52,2.52,0,0,0,.9,2,5.65,5.65,0,0,0,2.22,1.1c.89.24,2.13.5,3.73.8a40.08,40.08,0,0,1,5.17,1.18,7.73,7.73,0,0,1,3.38,2.12,5.93,5.93,0,0,1,1.4,4.2,6.64,6.64,0,0,1-3.08,5.73c-2.05,1.42-4.84,2.12-8.37,2.12A22.31,22.31,0,0,1,223.91,116.05Z"/><path d="M20.27,193.33c-.58.08-1.14.17-1.67.29s-1.06.26-1.61.41a4.5,4.5,0,0,1-.7.18c-.24,0-.49.1-.76.17-.71-.15-1.38-.27-2-.35a14.39,14.39,0,0,0-1.73-.12l-.88-.23c-.47-.16-.82-.28-1.06-.38a5.46,5.46,0,0,0-.67-.24c-.22-.05-.47-.1-.76-.14l-1.26-.18a5,5,0,0,1-1.94.41,5,5,0,0,1-1.34-.2,3.83,3.83,0,0,1-1.41-.82,7,7,0,0,1-1.35-1.7A11.23,11.23,0,0,1,0,187.64c.12-.89.25-1.67.41-2.34a11.62,11.62,0,0,1,.47-1.58l.47-.53a6.63,6.63,0,0,1,2.4-.41,8,8,0,0,1,2.52.41c.82.28,1.64.57,2.46.88.35.16.61.27.76.35l.35.18a.75.75,0,0,0,.33.06h.73a5.12,5.12,0,0,0,.56,0l.55-.09.7.06a2.08,2.08,0,0,0,1,.23,3.23,3.23,0,0,0,.85-.12l.91-.23a4.15,4.15,0,0,1,.82-.23,3,3,0,0,0,.64-.18l.59-.53a3.07,3.07,0,0,0,.91-.52,3,3,0,0,0,.55-.68,7.59,7.59,0,0,0,.44-.79,6.65,6.65,0,0,1,.56-.88c.2-.23.38-.47.56-.7a5.89,5.89,0,0,1,.55-.65v-.58a42.45,42.45,0,0,0,1.64-4.4c.47-1.48.88-3,1.23-4.45s.66-2.93.91-4.34.48-2.67.68-3.8a2,2,0,0,1-.35,0l-.3,0c-1.17,0-2.13,0-2.87.06s-1.43.09-2.05.17-1.28.19-2,.32-1.56.31-2.61.5l-1,.18q-1.11.53-2.13,1a5.29,5.29,0,0,1-2.14.44,4,4,0,0,1-3.05-1.4,3,3,0,0,1-1.52-2.35,1.58,1.58,0,0,1-.24-1,7,7,0,0,1-.26-1.5q0-.66,0-1.26l.06-1H6c.23-.24.4-.41.49-.53a1,1,0,0,0,.21-.41l.18-.59.58-.05c.82-.12,1.66-.26,2.52-.41s1.74-.34,2.64-.53l2.31-.41c.65-.12,1.26-.21,1.85-.27s1.19-.09,1.81-.11,1.35,0,2.17,0c.31,0,.6,0,.85,0s.52,0,.79,0a.85.85,0,0,1,.47-.35,1.57,1.57,0,0,1,.35-.06l.62.11.32.12a31.73,31.73,0,0,1,3.66-.44c1.12-.06,2.12-.09,3-.09h1.29a12.07,12.07,0,0,1,1.23.06h3.81a2.74,2.74,0,0,1,.56-.06h1.46a4.61,4.61,0,0,1,.56,0l.47.06.64.09c.66.12,1.27.21,1.82.29a11.21,11.21,0,0,0,1.64.12l1.11-.06.18.7.52.77a2.64,2.64,0,0,0,.47.64c.2.2.41.39.65.59a9.44,9.44,0,0,1,1.37,1.61,4.09,4.09,0,0,1,.5,2.78l-.53.7a2.45,2.45,0,0,0-.44.3,5.24,5.24,0,0,0-.43.41l-.59.52-1.29.09q-.52,0-1.17,0c-.7,0-1.42,0-2.14-.06l-2.26-.11q-.64-.06-1-.06h-.65l-.67,0c-.25,0-.58,0-1,0h-.85c-.17,0-.42,0-.73,0a19.51,19.51,0,0,1-.44,3.26c-.21.91-.48,1.88-.79,2.9a98.06,98.06,0,0,1-2.72,10.84,68.7,68.7,0,0,1-3.61,9.2c-1.25,1.32-2.44,2.51-3.57,3.54a9.85,9.85,0,0,1-3.81,2.2Z"/><path d="M75.47,176.8a3.79,3.79,0,0,0,.12,1.35,8.18,8.18,0,0,0,.44,1.26c.17.41.34.83.49,1.26a7.77,7.77,0,0,1,.36,1.29,7.64,7.64,0,0,1,0,1.79,9.75,9.75,0,0,1-.42,1.87,6.34,6.34,0,0,1-.76,1.64,3.12,3.12,0,0,1-1.11,1.09,5.82,5.82,0,0,1-2,1.64,11.67,11.67,0,0,0-2.17,1.4A4.37,4.37,0,0,1,69,192l-1.61.35a15.67,15.67,0,0,1-1.52.73c-.59.26-1.19.49-1.82.71a11.64,11.64,0,0,1-1.87.47,7.34,7.34,0,0,1-1.64.08,15.08,15.08,0,0,1-3.43.85,12,12,0,0,1-3.9-.26,9.82,9.82,0,0,1-3.89-.18,9.09,9.09,0,0,1-3.17-1.49,10.79,10.79,0,0,1-2.4-2.46,14.91,14.91,0,0,1-1.67-3,15.73,15.73,0,0,1,.23-6.06,20.38,20.38,0,0,1,2-5,27.16,27.16,0,0,1,3-4.28c1.14-1.31,2.23-2.59,3.29-3.84a.58.58,0,0,0,.55,0,1.26,1.26,0,0,0,.38-.41c.12-.17.25-.34.38-.49a.9.9,0,0,1,.5-.3,2.91,2.91,0,0,1,1.2-1.32,3.18,3.18,0,0,0,1.26-1.26,2.35,2.35,0,0,0,.88-.35,5.57,5.57,0,0,0,.68-.52,6,6,0,0,1,.67-.56,2.21,2.21,0,0,1,.82-.38v-.65a4.07,4.07,0,0,0,1.55-1.08l1.2-1.49a7.94,7.94,0,0,1,.85-.06,5.78,5.78,0,0,0,1-.12,6.23,6.23,0,0,1,.85-1.23,5.38,5.38,0,0,1,1.14-.88,5.18,5.18,0,0,0,1.55.47,2.58,2.58,0,0,1,1.5.76,1.54,1.54,0,0,0,.35.91,4.41,4.41,0,0,0,.64.58c.24.18.46.37.68.56a1.59,1.59,0,0,1,.44.82c.15,0,.26,0,.32-.06a.32.32,0,0,1,.32-.06,2.75,2.75,0,0,0,.41,1.09,3,3,0,0,1,.47,1,6.06,6.06,0,0,0-.44,1.21,1.3,1.3,0,0,1-.73.9c0,.28,0,.42.23.44a.38.38,0,0,1,.36.33.92.92,0,0,1-.18.76A38,38,0,0,1,73,172,38,38,0,0,0,75.47,176.8Zm-7.33,5.57a3.14,3.14,0,0,1,.62-1.05,2,2,0,0,0,.44-1.23,2.57,2.57,0,0,1-.35-.74,4.15,4.15,0,0,1-.06-.85,23.64,23.64,0,0,1-2.23-3.89,29,29,0,0,0-2.11-3.9,1.44,1.44,0,0,1-.41.47c-.19.16-.41.12-.64-.12a1.15,1.15,0,0,1-.41.68,1,1,0,0,1-.65.17,3,3,0,0,1-.73-.17,2.72,2.72,0,0,1-.67-.38q-1.71,1.33-3.4,2.63a17.25,17.25,0,0,0-3,3c-.15.08-.25.11-.29.09s-.16,0-.35.09a10.68,10.68,0,0,1-1.14,2c-.45.6-.89,1.22-1.32,1.84a13,13,0,0,0-1.12,2,6.56,6.56,0,0,0-.52,2.46,4.49,4.49,0,0,0,2.34,1,12.86,12.86,0,0,0,2.78.06,25.86,25.86,0,0,0,2.82-.38,13.11,13.11,0,0,1,2.54-.26,16.46,16.46,0,0,0,4.22-1.56C65.63,183.69,66.86,183,68.14,182.37Z"/><path d="M110,189.46a9.41,9.41,0,0,1-1,2,8.73,8.73,0,0,1-3.6,3.14,6.11,6.11,0,0,1-2.34.58,2.73,2.73,0,0,1-1-.38,6.08,6.08,0,0,0-.56-.38,2.36,2.36,0,0,0-.32-.2l-.26-.15-.7-.29.23-.77a.88.88,0,0,0-.06-.73,4.76,4.76,0,0,0-.7-.73l-.35-.35a3,3,0,0,1-.3-.35l-1-1.12,1.58-.41a3.66,3.66,0,0,0,2-1.05,3.2,3.2,0,0,0,.38-2.17,5.08,5.08,0,0,0-2-.06c-.53.12-1.06.26-1.61.41s-1.42.36-2.14.5a12.44,12.44,0,0,1-2.37.21c-.32,0-.61,0-.88,0l-.88-.09-.59-.12c-.08-.43-.15-.67-.23-.73a2.25,2.25,0,0,1-.24-.21,4.35,4.35,0,0,1-.61-.79,1.59,1.59,0,0,1-.15-1.26,2.89,2.89,0,0,1-.35-1,7.1,7.1,0,0,0-.53,1.46l-.23.59-.59.12a.41.41,0,0,0-.17.26,1.23,1.23,0,0,0-.06.32l-.29,1a2.12,2.12,0,0,1-.24.2,2.19,2.19,0,0,0-.23.21,10.34,10.34,0,0,1-.3,1.05c-.11.35-.23.69-.35,1-.19.51-.36,1-.49,1.49a4,4,0,0,0-.15,1.44l-.24.64a2.39,2.39,0,0,1-.64.56c-.23.14-.47.26-.7.38a1,1,0,0,1-.33.21l-.32.14-.17.65-.71.11-.91.18a2.74,2.74,0,0,1-.61.06l-.59-.06c-.43-.35-.76-.63-1-.85a7,7,0,0,0-.82-.62,3,3,0,0,1-.59-1.05c0-.23-.08-.45-.12-.64a4,4,0,0,1-.14-.59.57.57,0,0,0-.15-.35l-.76-.71.64-.52.06-1q1.17-3,2.49-5.74c.88-1.84,1.79-3.71,2.73-5.63.31-.62.61-1.24.91-1.87s.59-1.25.9-1.88a1.24,1.24,0,0,1,0-.41,1.35,1.35,0,0,1,.11-.52c.43-.67.78-1.26,1.06-1.79l.82-1.61c.31-.66.63-1.31,1-1.93a15.87,15.87,0,0,1,1.26-1.94l.94-.41.41-.14a1.47,1.47,0,0,1,.53-.09l.88.11A8.78,8.78,0,0,0,95,162.6a30.91,30.91,0,0,0,2.52-3.31l.58-.83.77.47a3.29,3.29,0,0,0,.82.33c.35.09.72.2,1.11.32a20.52,20.52,0,0,1,2,.53,3.64,3.64,0,0,1,1.53.87,7.48,7.48,0,0,1,.41,1.41,6.19,6.19,0,0,0,.17.94c.12.66.23,1.33.32,2a22.33,22.33,0,0,1,.21,2.23c.19.66.36,1.32.5,2s.26,1.3.38,2c.19.94.39,1.85.58,2.73a15.73,15.73,0,0,0,.77,2.49,1.65,1.65,0,0,1,.58.06,3.17,3.17,0,0,1,.62-.18l.73-.12.64-.06.24.59c0,.2.23.39.58.59a2.16,2.16,0,0,1,1.12.32,4.94,4.94,0,0,1,.64.56,2,2,0,0,0,.47.35l.88.35-.47.88a8,8,0,0,1-1.67,2,10.37,10.37,0,0,1-2.43,1.61c0,.23.07.46.09.67a2.94,2.94,0,0,0,.14.68c.12.66.22,1.35.3,2.05a11.23,11.23,0,0,1,0,2.17ZM93.11,179.32c1.17-.07,2.23-.16,3.19-.26s2-.26,3.19-.5c-.27-1.17-.56-2.39-.88-3.66s-.64-2.53-1-3.78l-.35.59A24.19,24.19,0,0,0,95,174.46c-.72,1-1.34,2-1.85,2.87l-.7,1.06c-.23.35-.45.7-.64,1.05a3.88,3.88,0,0,1,.67-.06A3.18,3.18,0,0,0,93.11,179.32Z"/><path d="M125.92,183.72a1,1,0,0,0-.76.61c-.16.34-.31.68-.44,1s-.28.67-.41,1a.67.67,0,0,1-.62.44,1.79,1.79,0,0,1-.32.82,7.81,7.81,0,0,0-.5.73,3,3,0,0,0-.35.82,1.58,1.58,0,0,0,.12,1,1.54,1.54,0,0,0-.59,1c-.08.43-.17.84-.26,1.23a2.55,2.55,0,0,1-.5,1,1.53,1.53,0,0,1-1.29.35c-.12.16-.14.25-.06.29s.14.18.18.41a1.34,1.34,0,0,0-1,.09,1.84,1.84,0,0,1-.79.26,3.84,3.84,0,0,1-1.85-1.23,10.9,10.9,0,0,1-1.29-2,22.77,22.77,0,0,1-1-2.2c-.29-.74-.58-1.38-.85-1.93a2.7,2.7,0,0,0,.06-1.26,2.75,2.75,0,0,0-.41-1q2.86-6.09,6.27-13t6.44-13.66q1.35.54,2.67,1.2a13.39,13.39,0,0,1,2.4,1.56,9.1,9.1,0,0,1,1.85,2,6.44,6.44,0,0,1,1,2.55c-.08.23-.16.32-.26.26s-.19,0-.26.09a1.62,1.62,0,0,1,.26.41.45.45,0,0,1,0,.23,1.42,1.42,0,0,0,0,.33,1.32,1.32,0,0,0,.18.55q-.24-.06-.33.06c-.06.08-.18.08-.38,0a2,2,0,0,1,.15,1.06,2.76,2.76,0,0,1-.27.73,4.45,4.45,0,0,0-.29.7,1.66,1.66,0,0,0,.06,1,.34.34,0,0,0-.26.09.8.8,0,0,0-.15.17,1.19,1.19,0,0,1-.15.18c0,.06-.14.07-.26,0a13.94,13.94,0,0,1,.12,2.58c0,.86-.07,1.72-.09,2.6s0,1.8,0,2.76a15.82,15.82,0,0,0,.41,3,9.87,9.87,0,0,0,3.37-3.17,18.6,18.6,0,0,0,2.05-4.33,30.68,30.68,0,0,0,1.2-5.16c.27-1.84.57-3.71.88-5.63a3.75,3.75,0,0,0,.82-1.28c.19-.51.37-1,.53-1.62s.31-1.13.47-1.7a8.59,8.59,0,0,1,.58-1.55,3.33,3.33,0,0,1,1.5.56,9.5,9.5,0,0,1,1.14.94,12.42,12.42,0,0,0,1.11.93,3,3,0,0,0,1.47.56c.46.66.89,1.31,1.29,1.93a5.67,5.67,0,0,1,.76,2,3.29,3.29,0,0,0-.44,1c-.1.39-.21.78-.32,1.17a5.6,5.6,0,0,1-.47,1.09,2.76,2.76,0,0,1-.82.85c-.12,1-.27,1.94-.44,2.78s-.35,1.67-.53,2.49-.32,1.67-.44,2.55a16.78,16.78,0,0,0-.12,2.9l-1,2.87a28.45,28.45,0,0,0-.82,2.75,5.47,5.47,0,0,0-1.47,1.82c-.35.7-.72,1.41-1.11,2.11-.16.16-.26.2-.29.12s-.18-.14-.41-.18a.67.67,0,0,1,0,.35.8.8,0,0,1-.15.21.45.45,0,0,0-.12.26.9.9,0,0,0,.09.47,4.57,4.57,0,0,0-1.47,1,11.61,11.61,0,0,1-1.37,1.17,4.26,4.26,0,0,1-1.76.7,5.51,5.51,0,0,1-2.67-.41,22.57,22.57,0,0,1-4.24-4A19.28,19.28,0,0,1,125.92,183.72Z"/><path d="M174.61,172.35a13.64,13.64,0,0,1-.18-3.4c.08-1.17.12-2.3.12-3.4a31.08,31.08,0,0,0-.2-3.36c-.14-1.2-.26-2.34-.36-3.43a29.41,29.41,0,0,1-.11-3,5.43,5.43,0,0,1,.38-2.14,4,4,0,0,1,1.17-1.38,10.2,10.2,0,0,0,1.35-1.14,4.59,4.59,0,0,1,1.37.44,3.76,3.76,0,0,1,1.06.82,3.37,3.37,0,0,1,.64,1,1.73,1.73,0,0,1,.09,1,6.89,6.89,0,0,1,2.37,2.37,12.92,12.92,0,0,1,1.41,3.29,22.21,22.21,0,0,1,.7,3.78c.14,1.32.26,2.63.36,3.92s.19,2.51.29,3.66a13.56,13.56,0,0,0,.56,3c1.71-2.5,3.17-4.72,4.36-6.65s2.39-3.79,3.6-5.57,2.57-3.58,4.08-5.42a80.44,80.44,0,0,1,5.77-6.21,5,5,0,0,1,1.17.3l.82.35a3.57,3.57,0,0,0,2.17.23c.19.47.34.81.44,1l.26.61c.08.2.18.45.29.76l.53,1.41a.88.88,0,0,1,.15.62,5.46,5.46,0,0,1-.09.67,1.34,1.34,0,0,0,0,.47c0,.12.15.12.38,0a5.41,5.41,0,0,1-.76,1.79,3,3,0,0,0-.47,1.9c-1.05,1.41-2.23,2.85-3.51,4.34s-2.58,3-3.87,4.65-2.53,3.31-3.72,5a30.65,30.65,0,0,0-3,5.54.72.72,0,0,0-.53.18,2.34,2.34,0,0,0-.32.41c-.1.15-.2.31-.29.47a.56.56,0,0,1-.5.23,6.48,6.48,0,0,1-1.38,3.54,20.18,20.18,0,0,1-2.55,2.85,3.16,3.16,0,0,1,.12.76,2.86,2.86,0,0,1-.06.58,5.77,5.77,0,0,0-.09.62,3.69,3.69,0,0,0,0,.79,7.2,7.2,0,0,1-1.37,2.34,5.88,5.88,0,0,1-1.85,1.41,4,4,0,0,1-2,.38,4.06,4.06,0,0,1-2-.73,2.19,2.19,0,0,1-.71-.65c-.19-.27-.4-.53-.61-.79s-.43-.48-.65-.7a1.66,1.66,0,0,0-.79-.44,3.61,3.61,0,0,0,0-1.23,6.31,6.31,0,0,0-.26-1.17,4,4,0,0,0-.41-.88c-.16-.24-.31-.35-.47-.35-.16-1-.36-2-.61-3.2s-.51-2.29-.77-3.42-.46-2.25-.61-3.34a16.36,16.36,0,0,1-.18-3,2.13,2.13,0,0,0-.26-1.26A3.67,3.67,0,0,1,174.61,172.35Z"/><path d="M217.44,190.28a4.52,4.52,0,0,1-.2,2.75,3.37,3.37,0,0,1-1.41,1.5,4.83,4.83,0,0,1-2.08.56,10.85,10.85,0,0,1-2.23-.12,9.1,9.1,0,0,1-1.05-2.05c-.31-.82-.61-1.67-.88-2.55s-.52-1.75-.73-2.61-.4-1.62-.56-2.28a5.51,5.51,0,0,0,.38-1.61c.06-.61.1-1.22.12-1.85s0-1.26.06-1.9a17.83,17.83,0,0,1,.14-1.85,28,28,0,0,1,1.21-4.69,32.44,32.44,0,0,0,1.25-4.63,1.59,1.59,0,0,0-.08-1,1.25,1.25,0,0,1-.09-.88.43.43,0,0,1,.35-.32.47.47,0,0,0,.35-.38,2.27,2.27,0,0,0,.09-1.06,1.55,1.55,0,0,1,.21-1c.19-.31.43-.77.73-1.37a3.41,3.41,0,0,0,.32-1.91,6.3,6.3,0,0,0,1-.82,10.82,10.82,0,0,1,1-.85,6.77,6.77,0,0,1,1.12-.67,3.36,3.36,0,0,1,1.49-.29,3.09,3.09,0,0,1,.62,1.29c.09.46.19.93.29,1.4a5.69,5.69,0,0,0,.44,1.32,2.12,2.12,0,0,0,1,1v1.17q0,.7.06,1.38a4.62,4.62,0,0,0,.27,1.23,1.14,1.14,0,0,0,.67.73c-.7,1.87-1.36,3.73-2,5.56a51.12,51.12,0,0,0-1.5,5.54,36.69,36.69,0,0,0-.73,5.6A24.28,24.28,0,0,0,217.44,190.28Z"/><path d="M248.61,194.5a15.74,15.74,0,0,1-2.31-.06,5.06,5.06,0,0,0-2.55.41,40.14,40.14,0,0,1-6.33-.76,45.7,45.7,0,0,1-5.92-1.58q-.58-.64-1.17-1.2a3.32,3.32,0,0,0-1.58-.79,8.9,8.9,0,0,1-2.29-2.73,17.26,17.26,0,0,1-1.4-3.43,19.39,19.39,0,0,1-.7-3.72,28.55,28.55,0,0,1-.12-3.66,13.38,13.38,0,0,1,2.49-4.54c1.07-1.27,2.18-2.53,3.31-3.78a3.87,3.87,0,0,0,1.14-.73,7.87,7.87,0,0,1,.82-.71l.88-.64a3.7,3.7,0,0,0,.79-.79,7.53,7.53,0,0,0,2.14-.85c.61-.37,1.2-.76,1.79-1.17a21.17,21.17,0,0,1,1.81-1.14,8.31,8.31,0,0,1,2.17-.83,3.47,3.47,0,0,1,1.12-.84l1.31-.65c.45-.21.88-.44,1.29-.67a2.65,2.65,0,0,0,1-.94.67.67,0,0,0,.82.32c.35-.1.68-.2,1-.32a.53.53,0,0,1,.49.12,3.22,3.22,0,0,1,.38.35.66.66,0,0,0,.33.2c.09,0,.18-.06.26-.26.2,0,.25.1.18.29s-.14.33-.18.41a1,1,0,0,1,.79.21,2,2,0,0,0,1,.32c.15.2.19.34.11.44a.88.88,0,0,0-.11.5,3.17,3.17,0,0,1,2.22,1.67,3.28,3.28,0,0,1,.06,2.37,5.9,5.9,0,0,1-1.46,2.29,5.32,5.32,0,0,1-2.29,1.4q-2.81.77-5.3,1.67a10,10,0,0,0-4.07,2.67,9.75,9.75,0,0,0-2.49,1.08,14.57,14.57,0,0,0-2,1.53,25.23,25.23,0,0,0-1.82,1.75c-.57.61-1.16,1.2-1.79,1.79a1.89,1.89,0,0,1-.26,1.26c-.22.29-.42.6-.62.91a6.15,6.15,0,0,0,.41,1.55c.2.45.41.89.65,1.32a36.57,36.57,0,0,0,8.23,1.46q4.36.3,8.76.36a6.16,6.16,0,0,0,1,1.08,10.09,10.09,0,0,1,1,1.05,4.93,4.93,0,0,1,.76,1.23,2.84,2.84,0,0,1,.12,1.67,13.33,13.33,0,0,1-1.81,1.62C249.94,193.49,249.28,194,248.61,194.5Z"/><path d="M287.17,161.39a2.35,2.35,0,0,1,0,.62c0,.14,0,.26-.06.38a2.34,2.34,0,0,0,0,.38,2.49,2.49,0,0,0,.12.62,6.69,6.69,0,0,1-2.85,2.72,14.25,14.25,0,0,1-3.48,1.06l-3.84.67a11.32,11.32,0,0,0-3.9,1.52,1.71,1.71,0,0,0-1.37,0,3.41,3.41,0,0,1-1.79.18,2,2,0,0,1-.88.5c-.35.1-.7.2-1.05.32a2.39,2.39,0,0,1,.2,1.08,1.78,1.78,0,0,0,.15.91,24.88,24.88,0,0,0,4.54-.06c1.66-.15,3.29-.25,4.89-.29,0,.2,0,.32-.06.38s-.09.17-.06.32a5,5,0,0,1,.82.74l.83.85a4.66,4.66,0,0,0,.84.67,1.68,1.68,0,0,0,1,.2,3.53,3.53,0,0,1,.32,1,2.17,2.17,0,0,1-.14,1.14c-.63.43-1.26.87-1.88,1.32a15.12,15.12,0,0,1-2,1.2,11.64,11.64,0,0,1-2.17.85,7.94,7.94,0,0,1-2.55.26h-.44a.67.67,0,0,1-.38-.17,2,2,0,0,1-1.32.17,2.07,2.07,0,0,0-1.32.18,3.5,3.5,0,0,0-1.55-.26,4.49,4.49,0,0,1-1.61-.21,20.9,20.9,0,0,0-1.7,2.64,22.62,22.62,0,0,0-1.35,3,18.34,18.34,0,0,0,3.31.23c.88,0,1.71-.11,2.49-.2l2.41-.3a22.51,22.51,0,0,1,3.1-.08,7.63,7.63,0,0,1,2.78-.85,15,15,0,0,0,3-.68,1.82,1.82,0,0,1,.82.62l.68.82a5.3,5.3,0,0,0,.67.67,1.11,1.11,0,0,0,.88.24,1.18,1.18,0,0,1,.32.55c.06.22.11.42.15.62a1.5,1.5,0,0,0,.2.5.48.48,0,0,0,.5.14,8.72,8.72,0,0,1-2,3,7.67,7.67,0,0,1-2.61,1.55,17.93,17.93,0,0,1-3.25.82c-1.19.2-2.51.43-3.95.71a1.5,1.5,0,0,1-.88,0,2.1,2.1,0,0,0-.82-.15c-.9.2-2,.37-3.23.53a25.21,25.21,0,0,1-3.8.17,17.75,17.75,0,0,1-3.7-.49,6,6,0,0,1-2.87-1.56,1.91,1.91,0,0,1-.61-1,1.3,1.3,0,0,0-.79-.85,15.36,15.36,0,0,0-.24-1.7c-.11-.63-.23-1.28-.35-2s-.2-1.35-.26-2a5.92,5.92,0,0,1,.09-1.81,3.53,3.53,0,0,1,.73-1.58,1.77,1.77,0,0,0,.38-1.53.4.4,0,0,0,.35-.32c0-.18.2-.24.47-.21.23-.7.49-1.36.76-2s.56-1.23.85-1.81.59-1.19.88-1.79.58-1.28.85-2a4.81,4.81,0,0,1-1.2-1.67,9.06,9.06,0,0,1-.56-1.82c-.12-.6-.21-1.23-.29-1.87a13,13,0,0,0-.41-2,5.12,5.12,0,0,1,1.43-1.43,8.38,8.38,0,0,1,1.85-.91,17,17,0,0,1,2.17-.59c.78-.15,1.6-.33,2.46-.52,1.56-.51,3-.9,4.19-1.18s2.44-.49,3.63-.67,2.43-.34,3.72-.5,2.76-.39,4.4-.7a1.48,1.48,0,0,0,1,.53c.16-.35.34-.46.56-.33s.3,0,.26-.32a5.46,5.46,0,0,0,1.5,1.67A9.44,9.44,0,0,0,287.17,161.39Z"/><path d="M297.77,183.72a1.07,1.07,0,0,0-.76.61c-.15.34-.3.68-.44,1s-.27.67-.41,1a.66.66,0,0,1-.61.44,1.7,1.7,0,0,1-.33.82,7.74,7.74,0,0,0-.49.73,2.71,2.71,0,0,0-.35.82,1.64,1.64,0,0,0,.11,1,1.53,1.53,0,0,0-.58,1q-.12.65-.27,1.23a2.42,2.42,0,0,1-.5,1,1.5,1.5,0,0,1-1.28.35c-.12.16-.14.25-.06.29s.13.18.17.41a1.31,1.31,0,0,0-1,.09,1.89,1.89,0,0,1-.8.26,3.81,3.81,0,0,1-1.84-1.23,10.39,10.39,0,0,1-1.29-2c-.37-.72-.7-1.45-1-2.2s-.57-1.38-.85-1.93a2.7,2.7,0,0,0,.06-1.26,2.59,2.59,0,0,0-.41-1q2.88-6.09,6.27-13t6.45-13.66c.9.36,1.78.76,2.66,1.2a13.84,13.84,0,0,1,2.41,1.56,9.05,9.05,0,0,1,1.84,2,6.46,6.46,0,0,1,1,2.55c-.08.23-.17.32-.27.26s-.18,0-.26.09a1.36,1.36,0,0,1,.26.41.45.45,0,0,1,0,.23,1.42,1.42,0,0,0,0,.33,1.32,1.32,0,0,0,.18.55c-.16,0-.26,0-.32.06s-.19.08-.38,0a2,2,0,0,1,.14,1.06,2.43,2.43,0,0,1-.26.73,3.67,3.67,0,0,0-.29.7,1.66,1.66,0,0,0,.06,1,.37.37,0,0,0-.27.09.55.55,0,0,0-.14.17,1.19,1.19,0,0,1-.15.18.23.23,0,0,1-.26,0,14.86,14.86,0,0,1,.11,2.58c0,.86-.07,1.72-.09,2.6s0,1.8,0,2.76a16.69,16.69,0,0,0,.41,3,9.87,9.87,0,0,0,3.37-3.17,18.2,18.2,0,0,0,2-4.33,31.68,31.68,0,0,0,1.21-5.16c.27-1.84.56-3.71.87-5.63a3.48,3.48,0,0,0,.82-1.28,14.64,14.64,0,0,0,.53-1.62c.16-.56.31-1.13.47-1.7a8.6,8.6,0,0,1,.59-1.55,3.34,3.34,0,0,1,1.49.56,9.5,9.5,0,0,1,1.14.94,14.16,14.16,0,0,0,1.12.93,3,3,0,0,0,1.46.56c.47.66.9,1.31,1.29,1.93a5.31,5.31,0,0,1,.76,2,3.81,3.81,0,0,0-.44,1c-.09.39-.2.78-.32,1.17a5.05,5.05,0,0,1-.47,1.09,2.65,2.65,0,0,1-.82.85c-.12,1-.26,1.94-.44,2.78s-.35,1.67-.53,2.49-.32,1.67-.43,2.55a16.78,16.78,0,0,0-.12,2.9c-.32.9-.65,1.85-1,2.87s-.62,1.93-.82,2.75a5.57,5.57,0,0,0-1.46,1.82c-.35.7-.73,1.41-1.12,2.11-.15.16-.25.2-.29.12s-.18-.14-.41-.18a.51.51,0,0,1,0,.35.8.8,0,0,1-.15.21.52.52,0,0,0-.11.26,1,1,0,0,0,.08.47,4.64,4.64,0,0,0-1.46,1,11,11,0,0,1-1.38,1.17,4.22,4.22,0,0,1-1.75.7,5.48,5.48,0,0,1-2.67-.41,22.63,22.63,0,0,1-4.25-4A19.28,19.28,0,0,1,297.77,183.72Z"/><path d="M320.57,168a5.13,5.13,0,0,1,1.31-2.11,9.69,9.69,0,0,1,2-1.5,13.39,13.39,0,0,1,2.25-1c.78-.28,1.53-.51,2.23-.71q2.34-1,5-1.9c1.78-.61,3.59-1.14,5.45-1.61a32.68,32.68,0,0,1,5.71-.91,17.58,17.58,0,0,1,6.15.73,4.58,4.58,0,0,0,.53,1.12l.73,1a11.4,11.4,0,0,1,.68,1,2.64,2.64,0,0,1,.35,1,4.75,4.75,0,0,1,.94,1.14A2.19,2.19,0,0,1,354,166c-.39.32-.77.6-1.14.85a7.77,7.77,0,0,1-1.2.68,13.82,13.82,0,0,0-4.39-.35l-4,.29a1.72,1.72,0,0,0-1.26-.53,5.17,5.17,0,0,0-1.52.24l-1.58.47a3.39,3.39,0,0,1-1.5.11,3.05,3.05,0,0,1-1.43.62c-.57.1-1.19.18-1.85.26,0,.2,0,.32.12.38s.13.19.06.38a1.87,1.87,0,0,0,.9.59l1.18.35a4.87,4.87,0,0,1,1.08.44,1.37,1.37,0,0,1,.64.85,2.82,2.82,0,0,1,1.53.41,3.59,3.59,0,0,1,1.05,1,4.35,4.35,0,0,1,.62,1.26,4.41,4.41,0,0,1,.2,1.2c.12.31.26.45.41.41s.33,0,.53.23a3.57,3.57,0,0,0,.88,1.55,6.53,6.53,0,0,1,1.11,1.73q.12,1.47.18,2.61a5.44,5.44,0,0,1-.41,2.31,12.92,12.92,0,0,1-2.43,3.87,19.29,19.29,0,0,1-3.52,3,24.05,24.05,0,0,1-4.19,2.25,44.29,44.29,0,0,1-4.33,1.59.94.94,0,0,0-.47,0q-.24.06-.12-.3a2.17,2.17,0,0,1-1,.53,4.65,4.65,0,0,1-1.2.09l-1.32-.09a4.27,4.27,0,0,0-1.25.06c-.28-.27-.52-.54-.74-.79a2.77,2.77,0,0,1-.5-1c-.19,0-.28-.09-.26-.29s-.05-.29-.2-.29a1.86,1.86,0,0,0,.32-.68c0-.06-.08-.1-.18-.14a1.1,1.1,0,0,1-.26-.15.21.21,0,0,1-.06-.26,2,2,0,0,0,.18-1.09q-.06-.61-.12-1.26a3.58,3.58,0,0,1,.09-1.23,1.46,1.46,0,0,1,.85-.94,11.59,11.59,0,0,0,3.78-.14,17.16,17.16,0,0,0,3.36-1.09,30.42,30.42,0,0,0,3-1.52c1-.55,1.91-1,2.84-1.46a2.42,2.42,0,0,1,.5-.88,6.91,6.91,0,0,1,.68-.65,5.53,5.53,0,0,0,.64-.64,2.05,2.05,0,0,0,.41-.88c0-.27,0-.44-.2-.5a.4.4,0,0,1-.27-.44l-.64-.17a12.11,12.11,0,0,0-2.52-1.09,13.12,13.12,0,0,1-2.4-1,1.5,1.5,0,0,1-1.21.18,14.32,14.32,0,0,0-1.43-.35c-1.33-.08-2.61-.22-3.84-.41a14,14,0,0,1-3.54-1.06,2.21,2.21,0,0,0-.3-.52c-.11-.16-.33-.2-.64-.12l-.7-.91a6.31,6.31,0,0,1-.65-1q.12-.69.18-1.2a1.23,1.23,0,0,0-.36-1q.24-.76.36-1.23A3.59,3.59,0,0,0,320.57,168Z"/><path d="M17,237.76a7.32,7.32,0,0,1,2,5.64v11.2H15.87v-2.45a5.37,5.37,0,0,1-2.4,2,9.17,9.17,0,0,1-3.69.68,7.71,7.71,0,0,1-5-1.51,5.17,5.17,0,0,1-.08-7.89q1.79-1.49,5.67-1.49H15.7v-.66a4.29,4.29,0,0,0-1.26-3.33,5.32,5.32,0,0,0-3.71-1.15,9.85,9.85,0,0,0-3.22.54,8.35,8.35,0,0,0-2.66,1.45l-1.4-2.52a9.94,9.94,0,0,1,3.43-1.76,14.28,14.28,0,0,1,4.23-.62A8.4,8.4,0,0,1,17,237.76Zm-3.34,13.6a4.91,4.91,0,0,0,2-2.43v-2.59H10.52q-4.27,0-4.27,2.87a2.59,2.59,0,0,0,1.08,2.2,4.94,4.94,0,0,0,3,.81A6.28,6.28,0,0,0,13.67,251.36Z"/><path d="M40.81,237.92a8.06,8.06,0,0,1,2.08,6V254.6H39.53V244.31a5.7,5.7,0,0,0-1.29-4.06,4.88,4.88,0,0,0-3.71-1.37,5.76,5.76,0,0,0-4.31,1.6A6.2,6.2,0,0,0,28.65,245v9.56H25.29V236.05h3.22v2.8a6.53,6.53,0,0,1,2.74-2.21,9.68,9.68,0,0,1,3.94-.77A7.69,7.69,0,0,1,40.81,237.92Z"/><path d="M66.73,228.63v26H63.51v-2.94A7.24,7.24,0,0,1,60.67,254a8.72,8.72,0,0,1-3.78.81,9.77,9.77,0,0,1-4.83-1.19,8.58,8.58,0,0,1-3.34-3.34,9.93,9.93,0,0,1-1.21-5,9.79,9.79,0,0,1,1.21-4.93,8.62,8.62,0,0,1,3.34-3.33,9.77,9.77,0,0,1,4.83-1.19,8.78,8.78,0,0,1,3.68.76,7.14,7.14,0,0,1,2.8,2.22V228.63Zm-6.37,22.42a5.86,5.86,0,0,0,2.24-2.31,7.69,7.69,0,0,0,0-6.83,5.68,5.68,0,0,0-2.24-2.29,6.38,6.38,0,0,0-3.19-.81,6.32,6.32,0,0,0-3.2.81,5.74,5.74,0,0,0-2.24,2.29,7.52,7.52,0,0,0,0,6.83A5.93,5.93,0,0,0,54,251.05a6.32,6.32,0,0,0,3.2.82A6.39,6.39,0,0,0,60.36,251.05Z"/><path d="M82.56,231.85a2.06,2.06,0,0,1-.64-1.54,2.12,2.12,0,0,1,.64-1.56,2.22,2.22,0,0,1,1.63-.65,2.28,2.28,0,0,1,1.63.62,2,2,0,0,1,.65,1.52,2.16,2.16,0,0,1-.65,1.59,2.22,2.22,0,0,1-1.63.65A2.25,2.25,0,0,1,82.56,231.85Zm0,4.2h3.36V254.6H82.51Z"/><path d="M94.74,229.1a2.39,2.39,0,0,1,.65,1.7,5.07,5.07,0,0,1-.1,1,11.61,11.61,0,0,1-.46,1.45l-1.68,4.9H91L92.24,233a2.23,2.23,0,0,1-1.07-.82,2.51,2.51,0,0,1,.27-3.07,2.28,2.28,0,0,1,1.68-.66A2.15,2.15,0,0,1,94.74,229.1Z"/><path d="M129,237.9c1.37,1.36,2.05,3.36,2.05,6V254.6h-3.36V244.31a5.84,5.84,0,0,0-1.24-4.06,4.56,4.56,0,0,0-3.55-1.37,5.28,5.28,0,0,0-4.06,1.6A6.35,6.35,0,0,0,117.3,245v9.56h-3.36V244.31a5.84,5.84,0,0,0-1.24-4.06,4.56,4.56,0,0,0-3.55-1.37,5.32,5.32,0,0,0-4.07,1.6,6.4,6.4,0,0,0-1.5,4.56v9.56h-3.36V236.05h3.22v2.76a6.53,6.53,0,0,1,2.66-2.18,8.82,8.82,0,0,1,3.75-.76,8.28,8.28,0,0,1,3.85.88,6.12,6.12,0,0,1,2.59,2.55,7.14,7.14,0,0,1,2.92-2.52,9.61,9.61,0,0,1,4.22-.91A7.53,7.53,0,0,1,129,237.9Z"/><path d="M159.28,237.76a7.29,7.29,0,0,1,2.05,5.64v11.2h-3.19v-2.45a5.34,5.34,0,0,1-2.39,2,9.26,9.26,0,0,1-3.7.68,7.67,7.67,0,0,1-5-1.51,4.82,4.82,0,0,1-1.88-4,4.88,4.88,0,0,1,1.79-3.94q1.78-1.49,5.67-1.49H158v-.66a4.29,4.29,0,0,0-1.26-3.33,5.32,5.32,0,0,0-3.71-1.15,9.85,9.85,0,0,0-3.22.54,8.35,8.35,0,0,0-2.66,1.45l-1.4-2.52a10,10,0,0,1,3.43-1.76,14.28,14.28,0,0,1,4.23-.62A8.38,8.38,0,0,1,159.28,237.76Zm-3.34,13.6a4.91,4.91,0,0,0,2-2.43v-2.59h-5.18q-4.28,0-4.27,2.87a2.59,2.59,0,0,0,1.08,2.2,5,5,0,0,0,3,.81A6.25,6.25,0,0,0,155.94,251.36Z"/><path d="M194.47,228.63v26h-3.22v-2.94a7.14,7.14,0,0,1-2.83,2.34,8.72,8.72,0,0,1-3.78.81,9.77,9.77,0,0,1-4.83-1.19,8.58,8.58,0,0,1-3.34-3.34,9.93,9.93,0,0,1-1.21-5,9.79,9.79,0,0,1,1.21-4.93,8.62,8.62,0,0,1,3.34-3.33,9.77,9.77,0,0,1,4.83-1.19,8.74,8.74,0,0,1,3.67.76,7.07,7.07,0,0,1,2.8,2.22V228.63Zm-6.37,22.42a5.73,5.73,0,0,0,2.24-2.31,7.6,7.6,0,0,0,0-6.83,5.56,5.56,0,0,0-2.24-2.29,6.69,6.69,0,0,0-6.38,0,5.68,5.68,0,0,0-2.24,2.29,7.44,7.44,0,0,0,0,6.83,5.86,5.86,0,0,0,2.24,2.31,6.61,6.61,0,0,0,6.38,0Z"/><path d="M217.54,246.44h-15a5.83,5.83,0,0,0,2.15,3.94,7.05,7.05,0,0,0,4.57,1.49,6.89,6.89,0,0,0,5.35-2.24l1.86,2.17a8.25,8.25,0,0,1-3.13,2.24,11,11,0,0,1-4.19.77,10.86,10.86,0,0,1-5.21-1.21,8.56,8.56,0,0,1-3.52-3.38,9.65,9.65,0,0,1-1.24-4.9,9.76,9.76,0,0,1,1.21-4.86,8.63,8.63,0,0,1,3.32-3.38,9.54,9.54,0,0,1,4.78-1.21,9.34,9.34,0,0,1,4.74,1.21,8.55,8.55,0,0,1,3.26,3.38,10.28,10.28,0,0,1,1.17,5C217.61,245.69,217.58,246,217.54,246.44Zm-13.14-6.26a5.87,5.87,0,0,0-1.91,3.85h11.9a6,6,0,0,0-1.91-3.83,5.72,5.72,0,0,0-4-1.49A5.79,5.79,0,0,0,204.4,240.18Z"/><path d="M238.33,236.05l-8.12,18.55h-3.43l-8.12-18.55h3.5l6.37,14.87L235,236.05Z"/><path d="M257.65,246.44h-15a5.83,5.83,0,0,0,2.15,3.94,7.05,7.05,0,0,0,4.57,1.49,6.87,6.87,0,0,0,5.35-2.24l1.86,2.17A8.25,8.25,0,0,1,253.4,254a11,11,0,0,1-4.19.77A10.86,10.86,0,0,1,244,253.6a8.56,8.56,0,0,1-3.52-3.38,9.65,9.65,0,0,1-1.24-4.9,9.76,9.76,0,0,1,1.21-4.86,8.63,8.63,0,0,1,3.32-3.38,9.54,9.54,0,0,1,4.78-1.21,9.34,9.34,0,0,1,4.74,1.21,8.55,8.55,0,0,1,3.26,3.38,10.28,10.28,0,0,1,1.17,5A8.68,8.68,0,0,1,257.65,246.44Zm-13.14-6.26A5.91,5.91,0,0,0,242.6,244h11.9a6,6,0,0,0-1.91-3.83,5.72,5.72,0,0,0-4-1.49A5.79,5.79,0,0,0,244.51,240.18Z"/><path d="M262.37,228.63h3.36v26h-3.36Z"/><path d="M275.11,253.58a8.78,8.78,0,0,1-3.44-3.37,10.17,10.17,0,0,1,0-9.77,8.75,8.75,0,0,1,3.44-3.36,10.79,10.79,0,0,1,9.93,0,8.93,8.93,0,0,1,3.43,3.36,10.24,10.24,0,0,1,0,9.77,9,9,0,0,1-3.43,3.37,10.64,10.64,0,0,1-9.93,0Zm8.18-2.53a5.88,5.88,0,0,0,2.22-2.31,7.69,7.69,0,0,0,0-6.83,5.7,5.7,0,0,0-2.22-2.29,6.75,6.75,0,0,0-6.41,0,5.81,5.81,0,0,0-2.24,2.29,7.52,7.52,0,0,0,0,6.83,6,6,0,0,0,2.24,2.31,6.67,6.67,0,0,0,6.41,0Z"/><path d="M309,237.06a8.62,8.62,0,0,1,3.34,3.33,9.89,9.89,0,0,1,1.21,4.93,10,10,0,0,1-1.21,5,8.58,8.58,0,0,1-3.34,3.34,9.82,9.82,0,0,1-4.83,1.19,8.66,8.66,0,0,1-3.66-.77,7.67,7.67,0,0,1-2.82-2.24v9.59h-3.36V236.05h3.22V239a7.15,7.15,0,0,1,2.84-2.33,9,9,0,0,1,3.78-.79A9.82,9.82,0,0,1,309,237.06Zm-1.91,14a5.93,5.93,0,0,0,2.24-2.31,7.52,7.52,0,0,0,0-6.83,5.74,5.74,0,0,0-2.24-2.29,6.34,6.34,0,0,0-3.2-.81,6.2,6.2,0,0,0-3.17.83,5.94,5.94,0,0,0-2.24,2.29,6.81,6.81,0,0,0-.82,3.39,7.17,7.17,0,0,0,.8,3.42,5.86,5.86,0,0,0,2.24,2.31,6.63,6.63,0,0,0,6.39,0Z"/><path d="M334.93,246.44H319.88a5.83,5.83,0,0,0,2.15,3.94,7,7,0,0,0,4.57,1.49,6.89,6.89,0,0,0,5.35-2.24l1.86,2.17a8.25,8.25,0,0,1-3.13,2.24,11,11,0,0,1-4.19.77,10.86,10.86,0,0,1-5.21-1.21,8.56,8.56,0,0,1-3.52-3.38,9.65,9.65,0,0,1-1.24-4.9,9.76,9.76,0,0,1,1.21-4.86,8.63,8.63,0,0,1,3.32-3.38,9.51,9.51,0,0,1,4.78-1.21,9.34,9.34,0,0,1,4.74,1.21,8.55,8.55,0,0,1,3.26,3.38,10.28,10.28,0,0,1,1.17,5C335,245.69,335,246,334.93,246.44Zm-13.14-6.26a5.87,5.87,0,0,0-1.91,3.85h11.9a6,6,0,0,0-1.91-3.83,5.72,5.72,0,0,0-4-1.49A5.79,5.79,0,0,0,321.79,240.18Z"/><path d="M345.46,236.71a9.42,9.42,0,0,1,4.17-.84v3.26a5.32,5.32,0,0,0-.77,0,5.68,5.68,0,0,0-4.29,1.63,6.45,6.45,0,0,0-1.56,4.64v9.24h-3.36V236.05h3.22v3.11A5.8,5.8,0,0,1,345.46,236.71Z"/></g></g></svg>